<?xml version="1.0" encoding="UTF-8" standalone="no"?>
<!-- Generator: Adobe Illustrator 21.1.0, SVG Export Plug-In . SVG Version: 6.00 Build 0)  -->

<svg
   xmlns:dc="http://purl.org/dc/elements/1.1/"
   xmlns:cc="http://creativecommons.org/ns#"
   xmlns:rdf="http://www.w3.org/1999/02/22-rdf-syntax-ns#"
   xmlns:svg="http://www.w3.org/2000/svg"
   xmlns="http://www.w3.org/2000/svg"
   xmlns:sodipodi="http://sodipodi.sourceforge.net/DTD/sodipodi-0.dtd"
   xmlns:inkscape="http://www.inkscape.org/namespaces/inkscape"
   version="1.1"
   id="mnemonic"
   x="0px"
   y="0px"
   viewBox="0 0 4096 4096"
   xml:space="preserve"
   sodipodi:docname="lightroom-logo.svg"
   width="4096"
   height="4096"
   inkscape:export-filename="G:\Users\suitedoalex\sites\lightroom-logo-0.png"
   inkscape:export-xdpi="96"
   inkscape:export-ydpi="96"
   inkscape:version="0.92.2 (5c3e80d, 2017-08-06)"><metadata
     id="metadata15"><rdf:RDF><cc:Work
         rdf:about=""><dc:format>image/svg+xml</dc:format><dc:type
           rdf:resource="http://purl.org/dc/dcmitype/StillImage" /><dc:title></dc:title></cc:Work></rdf:RDF></metadata><defs
     id="defs13" /><sodipodi:namedview
     pagecolor="#ffffff"
     bordercolor="#666666"
     borderopacity="1"
     objecttolerance="10"
     gridtolerance="10"
     guidetolerance="10"
     inkscape:pageopacity="0"
     inkscape:pageshadow="2"
     inkscape:window-width="1920"
     inkscape:window-height="1017"
     id="namedview11"
     showgrid="false"
     inkscape:zoom="0.089143804"
     inkscape:cx="-133.28184"
     inkscape:cy="1606.2677"
     inkscape:window-x="-8"
     inkscape:window-y="-8"
     inkscape:window-maximized="1"
     inkscape:current-layer="mnemonic" /><style
     type="text/css"
     id="style2">
	.st0{fill:#3DF0F0;}
	.st1{fill:#022326;}
	.st2{fill-rule:evenodd;clip-rule:evenodd;fill:#CCFBFF;}
</style><path
     class="st0"
     d="M 2987.4511,3466.2683 H 1108.5487 c -284.86577,0 -515.18283,-230.3171 -515.18283,-515.1829 V 1144.9147 c 0,-284.86588 230.31706,-515.18296 515.18283,-515.18296 h 1878.9024 c 284.8659,0 515.183,230.31708 515.183,515.18296 v 1806.1707 c 0,284.8658 -230.3171,515.1829 -515.183,515.1829 z"
     id="path4"
     inkscape:connector-curvature="0"
     style="fill:#3df0f0;stroke-width:12.1219511"
     inkscape:export-filename="G:\Users\suitedoalex\sites\lightroom-logo-4.png"
     inkscape:export-xdpi="13.199196"
     inkscape:export-ydpi="13.199196" /><path
     class="st1"
     d="M 2941.3877,3345.0489 H 1154.6122 c -242.43902,0 -440.02682,-197.5878 -440.02682,-441.2391 V 1192.1903 c 0,-243.65128 197.5878,-441.23908 440.02682,-441.23908 h 1785.5634 c 243.6512,0 440.0268,197.5878 440.0268,440.02698 v 1712.8316 c 1.2121,243.6513 -196.3756,441.2391 -438.8147,441.2391 z"
     id="path6"
     inkscape:connector-curvature="0"
     style="fill:#022326;stroke-width:12.1219511"
     inkscape:export-filename="G:\Users\suitedoalex\sites\lightroom-logo-4.png"
     inkscape:export-xdpi="13.199196"
     inkscape:export-ydpi="13.199196" /><path
     class="st2"
     d="m 1399.4756,2609.2463 c -14.5464,0 -18.1829,-6.0609 -18.1829,-18.1828 V 1287.9537 c 0,-9.6974 3.6365,-15.7585 14.5463,-15.7585 h 191.5269 c 9.6975,0 12.1219,3.6366 12.1219,14.5463 v 1122.4927 h 499.4243 c 9.6977,0 13.3341,3.6366 10.9098,14.5463 l -30.3049,172.1317 c -2.4244,9.6976 -8.4854,14.5464 -18.1829,14.5464 h -661.8585 z m 909.1463,-785.5023 c 0,-14.5463 0,-49.7 -6.061,-117.5829 0,-9.6976 2.4245,-12.1219 9.6976,-15.7586 73.9439,-30.3049 249.7122,-83.6414 446.0877,-83.6414 9.6976,0 14.5464,2.4244 14.5464,12.122 v 174.556 c 0,9.6975 -3.6365,12.1219 -14.5464,12.1219 -76.3682,-3.6365 -189.1023,6.061 -231.5292,24.2439 v 764.8952 c 0,9.6976 -3.6365,14.5462 -14.5463,14.5462 H 2321.956 c -9.6975,0 -14.5463,-3.6365 -14.5463,-14.5462 V 1823.744 Z"
     id="path8"
     inkscape:connector-curvature="0"
     style="clip-rule:evenodd;fill:#ccfbff;fill-rule:evenodd;stroke-width:12.1219511"
     inkscape:export-filename="G:\Users\suitedoalex\sites\lightroom-logo-4.png"
     inkscape:export-xdpi="13.199196"
     inkscape:export-ydpi="13.199196" /></svg>