<?xml version="1.0" encoding="utf-8"?>
<!-- Generator: Adobe Illustrator 24.3.0, SVG Export Plug-In . SVG Version: 6.00 Build 0)  -->
<svg version="1.1" id="Layer_1" xmlns="http://www.w3.org/2000/svg" xmlns:xlink="http://www.w3.org/1999/xlink" x="0px" y="0px"
	 viewBox="0 0 200 200" style="enable-background:new 0 0 200 200;" xml:space="preserve">
<style type="text/css">
	.st0{stroke:#020202;stroke-width:2;stroke-miterlimit:10;}
	.st1{fill:#020202;}
</style>
<line class="st0" x1="195" y1="40.58" x2="183.67" y2="29.24"/>
<line class="st0" x1="195.75" y1="40.87" x2="179.02" y2="40.87"/>
<line class="st0" x1="184.44" y1="29.57" x2="165.48" y2="29.57"/>
<line class="st0" x1="166.19" y1="29.3" x2="144.54" y2="47.9"/>
<line class="st0" x1="165.44" y1="30.41" x2="170.64" y2="60.09"/>
<line class="st0" x1="183.43" y1="29.97" x2="154.72" y2="98.45"/>
<line class="st0" x1="170.24" y1="59.92" x2="91.4" y2="21.74"/>
<line class="st0" x1="116.93" y1="8.38" x2="99.46" y2="25.86"/>
<line class="st0" x1="144.16" y1="12.29" x2="116.06" y2="8.68"/>
<line class="st0" x1="143.64" y1="12.34" x2="127.26" y2="18.51"/>
<line class="st0" x1="151.6" y1="41.2" x2="117.21" y2="8.65"/>
<line class="st0" x1="155.07" y1="98" x2="73.72" y2="159.25"/>
<line class="st0" x1="90.87" y1="21.31" x2="90.87" y2="99.49"/>
<line class="st0" x1="154.42" y1="98" x2="90.42" y2="99.3"/>
<line class="st0" x1="90.69" y1="99.11" x2="169.53" y2="60.94"/>
<line class="st0" x1="90.87" y1="98.29" x2="66.18" y2="185.05"/>
<line class="st0" x1="90.87" y1="99.06" x2="38.56" y2="154.27"/>
<line class="st0" x1="66.41" y1="186.03" x2="37.74" y2="153.55"/>
<line class="st0" x1="33.69" y1="134.63" x2="74.75" y2="116.07"/>
<line class="st0" x1="44.4" y1="148.13" x2="35" y2="134.98"/>
<line class="st0" x1="52.72" y1="51.05" x2="89.96" y2="98.65"/>
<line class="st0" x1="5.06" y1="34.22" x2="92.03" y2="21.84"/>
<line class="st0" x1="52.72" y1="51.05" x2="90.31" y2="21.89"/>
<line class="st0" x1="53.19" y1="51.15" x2="5.24" y2="34.16"/>
<polygon class="st1" points="5.33,35.25 4.93,33.22 3.38,34.56 "/>
</svg>
